<svg width="171" height="125" viewBox="0 0 171 125" fill="none" xmlns="http://www.w3.org/2000/svg">
<g clip-path="url(#clip0_8_3)">
<path d="M28.9487 0.0917374C34.2019 -0.733967 37.9688 4.08505 36.9327 9.14551C36.5163 11.1784 29.3651 18.4793 27.5107 21.0723C9.83838 45.8242 9.74639 79.2676 27.5107 104.005C29.3796 106.603 36.5066 113.855 36.9327 115.932C38.2254 122.228 32.4928 127.1 26.6198 124.049C23.3904 122.368 17.5658 114.642 15.3386 111.446C-5.71808 81.228 -5.1177 40.2181 17.2946 10.8838C19.6283 7.82728 25.2157 0.676008 28.9487 0.0917374Z" fill="#06D6A0"/>
<path d="M140.221 0.101408C143.025 -0.246257 145.261 1.1782 147.203 3.07104C174.975 30.1406 178.335 76.1483 157.855 108.413C155.536 112.064 149.019 121.094 145.721 123.421C139.834 127.574 132.779 123.011 134.227 115.937C134.663 113.802 141.649 106.796 143.509 104.227C161.404 79.4897 161.365 45.8869 143.649 21.0772C141.795 18.4794 134.644 11.1832 134.227 9.14552C133.341 4.82868 135.699 0.661534 140.221 0.101408Z" fill="#06D6A0"/>
<path d="M83.3309 39.1509C112.454 36.2634 119.135 79.4366 90.5983 85.4338C58.3815 92.2084 50.901 42.3668 83.3309 39.1509Z" fill="#06D6A0"/>
<path d="M48.8772 20.3384C54.0094 19.4789 58.2895 23.9164 57.2243 29.0252C56.7595 31.2464 52.2809 35.4763 50.7025 37.7023C39.2083 53.9074 40.4768 73.8595 52.2422 89.4609C53.748 91.4552 56.8854 93.884 57.2824 96.3611C58.1249 101.634 53.5591 105.898 48.3107 104.584C45.5994 103.904 42.583 100.089 40.8496 97.9256C25.8596 79.1807 24.4846 52.5409 37.2183 32.2121C39.31 28.8707 44.9651 20.9951 48.8724 20.3432L48.8772 20.3384Z" fill="#06D6A0"/>
<path d="M119.547 20.3384C124.384 19.5272 127.463 23.6122 130.146 26.9489C147.159 48.1033 146.757 79.8277 128.528 100.137C124.97 104.101 119.576 107.655 115.296 102.117C111.016 96.5784 115.969 93.348 118.908 89.4561C130.668 73.8933 131.927 53.8832 120.448 37.6975C118.874 35.4811 114.381 31.2319 113.926 29.0204C113.132 25.1671 115.572 20.9999 119.547 20.3336V20.3384Z" fill="#06D6A0"/>
</g>
<defs>
<clipPath id="clip0_8_3">
<rect width="171" height="125" fill="white"/>
</clipPath>
</defs>
</svg>
